<svg xmlns="http://www.w3.org/2000/svg" width="100" height="100" x="0" y="0" viewBox="0 0 255.994 255.994"><defs><radialGradient id="color-1_Xy10Jcu1L2Su_gr1" cx="19.38" cy="42.035" r="44.899" gradientUnits="userSpaceOnUse"><stop offset="0" stop-color="#eb0027"/><stop offset=".328" stop-color="#ff543f"/><stop offset=".348" stop-color="#fc5245"/><stop offset=".504" stop-color="#e64771"/><stop offset=".643" stop-color="#d53e91"/><stop offset=".761" stop-color="#cc39a4"/><stop offset=".841" stop-color="#c837ab"/></radialGradient><radialGradient id="color-2_Xy10Jcu1L2Su_gr2" cx="11.786" cy="5.54" r="29.813" gradientUnits="userSpaceOnUse"><stop offset="0" stop-color="#4168c9"/><stop offset=".999" stop-color="#4168c9" stop-opacity="0"/></radialGradient></defs><g fill="none" fill-rule="nonzero" stroke="none" stroke-dashoffset="0" stroke-linecap="butt" stroke-linejoin="miter" stroke-miterlimit="10" stroke-width="1" font-family="none" font-size="none" font-weight="none" text-anchor="none" style="mix-blend-mode:normal"><g transform="scale(5.33333,5.33333)"><path fill="url(#color-1_Xy10Jcu1L2Su_gr1)" d="M34.017,41.99l-20,0.019c-4.4,0.004 -8.003,-3.592 -8.008,-7.992l-0.019,-20c-0.004,-4.4 3.592,-8.003 7.992,-8.008l20,-0.019c4.4,-0.004 8.003,3.592 8.008,7.992l0.019,20c0.005,4.401 -3.592,8.004 -7.992,8.008z"/><path fill="url(#color-2_Xy10Jcu1L2Su_gr2)" d="M34.017,41.99l-20,0.019c-4.4,0.004 -8.003,-3.592 -8.008,-7.992l-0.019,-20c-0.004,-4.4 3.592,-8.003 7.992,-8.008l20,-0.019c4.4,-0.004 8.003,3.592 8.008,7.992l0.019,20c0.005,4.401 -3.592,8.004 -7.992,8.008z"/><path fill="#fff" d="M24,31c-3.859,0 -7,-3.14 -7,-7c0,-3.86 3.141,-7 7,-7c3.859,0 7,3.14 7,7c0,3.86 -3.141,7 -7,7zM24,19c-2.757,0 -5,2.243 -5,5c0,2.757 2.243,5 5,5c2.757,0 5,-2.243 5,-5c0,-2.757 -2.243,-5 -5,-5z"/><circle cx="31.5" cy="16.5" r="1.5" fill="#fff"/><path fill="#fff" d="M30,37h-12c-3.859,0 -7,-3.14 -7,-7v-12c0,-3.86 3.141,-7 7,-7h12c3.859,0 7,3.14 7,7v12c0,3.86 -3.141,7 -7,7zM18,13c-2.757,0 -5,2.243 -5,5v12c0,2.757 2.243,5 5,5h12c2.757,0 5,-2.243 5,-5v-12c0,-2.757 -2.243,-5 -5,-5z"/></g></g></svg>